<?xml version="1.0" encoding="UTF-8"?>
<svg width="24px" height="24px" viewBox="0 0 24 24" version="1.1" xmlns="http://www.w3.org/2000/svg" xmlns:xlink="http://www.w3.org/1999/xlink">
    <title>select</title>
    <g id="Symbols" stroke="none" stroke-width="1" fill="none" fill-rule="evenodd">
        <g id="icon/pickPavers/inProcess" fill="#07A39D" fill-rule="nonzero">
            <g id="select">
                <path d="M21.3504375,4.35032812 C20.1325781,4.35032812 19.1046563,5.1765 18.7960781,6.29770312 L15.3145781,6.29770312 C15.0383906,4.99410937 14.0097188,3.9654375 12.7061719,3.68925 L12.7061719,0 L11.3017969,0 L11.3017969,3.68925 C9.99820313,3.9654375 8.96957813,4.99410937 8.69339063,6.29770312 L5.20396875,6.29770312 C4.89539063,5.17654687 3.86746875,4.35032812 2.64960938,4.35032812 C1.18860938,4.35032812 0,5.53889062 0,6.99989063 C0,8.46089063 1.18860938,9.64945313 2.6495625,9.64945313 C3.86742188,9.64945313 4.89534375,8.82328125 5.20392188,7.70207813 L8.69334375,7.70207813 C8.95476563,8.93596875 9.89053125,9.92301563 11.0953125,10.2593438 L10.5548438,11.45175 C10.4214375,11.3386875 10.2708281,11.2416094 10.1038594,11.1659531 C9.44704687,10.86825 8.70951563,10.9700156 8.16464063,11.3673281 C7.98801563,11.170125 7.77107812,11.009625 7.5226875,10.8970781 C7.05239063,10.6838906 6.52720313,10.6666875 6.04392188,10.8484687 C5.6281875,11.0048437 5.2865625,11.2927969 5.06339063,11.6695312 C4.92764063,11.5529531 4.77379688,11.4531094 4.60279688,11.3755781 C3.63192188,10.9355625 2.48404688,11.3673281 2.04398437,12.33825 L0,17.4209531 L0,24 L11.5524844,24 L12.9887813,21.6772969 L13.0159688,21.62925 C13.4069063,20.8694063 13.4843438,20.0009531 13.2339844,19.1839688 C13.0266563,18.507375 12.6129375,17.9280938 12.0513281,17.5156875 L15.0059063,10.9971094 C15.3176719,10.3092656 15.1913438,9.53278125 14.746125,8.98185937 C15.0225469,8.59959375 15.2164219,8.16403125 15.3143438,7.70207813 L18.7962188,7.70207813 C19.1047969,8.82323438 20.1327188,9.64945313 21.3505781,9.64945313 C22.8115313,9.64945313 24.0001406,8.46089063 24.0001406,6.99989063 C24.0001406,5.53889062 22.8114375,4.35032812 21.3504375,4.35032812 Z M2.6495625,8.24503125 C1.96298438,8.24503125 1.40442188,7.68646875 1.40442188,6.99989063 C1.40442188,6.3133125 1.96298438,5.75475 2.6495625,5.75475 C3.33614063,5.75475 3.89470313,6.3133125 3.89470313,6.99989063 C3.89470313,7.68646875 3.33614063,8.24503125 2.6495625,8.24503125 Z M10.0239844,6.99989062 C10.0239844,5.908125 10.9121719,5.01989062 12.0039375,5.01989062 C13.0957031,5.01989062 13.9838906,5.90807812 13.9838906,6.99989062 C13.9838906,7.47435938 13.8138281,7.92839062 13.510125,8.28445312 C12.8511562,8.19360938 12.1844531,8.45123438 11.7582188,8.96409375 C10.7820937,8.84259375 10.0239844,8.00840625 10.0239844,6.99989062 Z M13.7266875,10.4173125 L9.68892188,19.3256719 L10.9680469,19.9054219 L11.4488438,18.8446406 C11.98875,19.3946719 12.1404375,20.23725 11.7786094,20.9639531 L10.769625,22.5955781 L1.404375,22.5955781 L1.404375,17.6926875 L3.32817188,12.9070781 C3.45210938,12.6492188 3.76096875,12.535875 4.023,12.6546563 C4.28854688,12.7750312 4.40667188,13.089 4.28629688,13.3545469 L3.58921875,14.8925156 L4.86834375,15.4722656 L6.24220313,12.4396875 C6.36271875,12.173625 6.676125,12.0556875 6.94214063,12.1762969 C7.20810938,12.2968594 7.326,12.610125 7.20548438,12.8760937 L5.83157813,15.9088594 L7.11070313,16.4886094 L8.82417188,12.7082813 C8.88248438,12.5796562 9.1374375,12.282 9.52401563,12.4449375 C9.79265625,12.5581406 9.9076875,12.8790938 9.78745313,13.1446406 L7.94142188,17.2174688 L9.22054688,17.7972188 L12.7570781,9.9946875 C12.8706563,9.74404687 13.15575,9.6088125 13.4159063,9.6984375 C13.7145,9.801375 13.854,10.1364375 13.7266875,10.4173125 L13.7266875,10.4173125 Z M21.3504375,8.24503125 C20.6638594,8.24503125 20.1052969,7.68646875 20.1052969,6.99989063 C20.1052969,6.3133125 20.6638594,5.75475 21.3504375,5.75475 C22.0370156,5.75475 22.5955781,6.3133125 22.5955781,6.99989063 C22.5955781,7.68646875 22.0370156,8.24503125 21.3504375,8.24503125 Z" id="Shape"></path>
            </g>
        </g>
    </g>
</svg>