<?xml version="1.0" encoding="UTF-8"?>
<svg width="50px" height="50px" viewBox="0 0 50 50" version="1.1" xmlns="http://www.w3.org/2000/svg" xmlns:xlink="http://www.w3.org/1999/xlink">
    <title>icon-consult</title>
    <g id="ClientSide-Proposal" stroke="none" stroke-width="1" fill="none" fill-rule="evenodd">
        <g id="ClientSide---Proposal" transform="translate(-137.000000, -688.000000)">
            <g id="icon-consult" transform="translate(137.000000, 688.000000)">
                <rect id="Rectangle" fill="#07A39D" x="0" y="0" width="50" height="50" rx="3"></rect>
                <g id="plan" transform="translate(11.000000, 11.000000)" fill="#FFFFFF" fill-rule="nonzero" stroke="#FFFFFF" stroke-width="0.2">
                    <path d="M22.5868125,0.04484375 C22.9215,0.04484375 23.2362813,0.175164063 23.4729141,0.411796875 L23.4729141,0.411796875 L24.7500859,1.68896875 C24.9867188,1.92571094 25.1170391,2.24038281 25.1170391,2.57507031 C25.1170391,2.90975781 24.9867188,3.22453906 24.7500859,3.46117188 L24.7500859,3.46117188 L23.6456172,4.56564063 C23.6454531,4.56580469 23.6452891,4.56602344 23.645125,4.5661875 L22.498875,5.7124375 L25.6565859,5.7124375 C25.8835391,5.7124375 26.0675625,5.89640625 26.0675625,6.12341406 L26.0675625,6.12341406 L26.0675625,14.4922969 L27.2984141,13.2614453 C27.4159922,13.1439219 27.5927422,13.1087578 27.7463047,13.1724141 C27.8998125,13.2360156 28,13.3859141 28,13.5521094 L28,13.5521094 L28,27.5440703 C28,27.7710781 27.8159766,27.9550469 27.5890234,27.9550469 L27.5890234,27.9550469 L13.5969531,27.9550469 C13.4307578,27.9550469 13.2808594,27.8549141 13.2172578,27.7013516 C13.1536563,27.5477344 13.1888203,27.3710391 13.3063437,27.2534609 L13.3063437,27.2534609 L15.6715234,24.8882813 L3.11319531,24.8882813 C2.29660156,24.8882813 1.52501562,24.5743203 0.940515625,24.0042578 C0.393695313,23.4708359 0.0665,22.7681563 0.009734375,22.0118828 C0.0035,21.9834453 0,21.9539141 0,21.9235625 L0,21.9235625 L0,4.46807813 C0,2.68570313 1.45003906,1.23577344 3.23230469,1.23566406 C3.45925781,1.23566406 3.64328125,1.41963281 3.64328125,1.64664063 L3.64328125,1.64664063 L3.64328125,5.71238281 L16.400125,5.71238281 L19.2604453,2.8520625 L20.5956953,1.5168125 L21.7007109,0.411796875 C21.9373984,0.175164063 22.252125,0.04484375 22.5868125,0.04484375 Z M2.82127344,2.09267188 C1.68732812,2.28834375 0.82184375,3.27911719 0.82184375,4.46807813 L0.82184375,4.46807813 L0.82184375,19.7718828 C0.871171875,19.7167578 0.9218125,19.6625078 0.975242187,19.6103359 C1.48317969,19.1143203 2.12734375,18.8047891 2.82132812,18.7170156 L2.82132812,18.7170156 L2.82132812,16.1222578 C2.82132812,15.89525 3.00535156,15.7112813 3.23230469,15.7112813 C3.45925781,15.7112813 3.64328125,15.89525 3.64328125,16.1222578 L3.64328125,16.1222578 L3.64328125,19.102125 C3.64328125,19.3291328 3.45925781,19.5131016 3.23230469,19.5131016 C3.1915625,19.5131016 3.15098437,19.5141406 3.11073437,19.5161641 C3.101,19.5166563 3.09126562,19.5176953 3.08153125,19.5182969 C3.05079687,19.5202109 3.0200625,19.5222344 2.98960156,19.5252969 C2.9806875,19.5261719 2.97188281,19.5275391 2.96302344,19.5285234 C2.93146875,19.5320781 2.89991406,19.5357969 2.8686875,19.5405547 C2.86283594,19.5414297 2.85709375,19.5425781 2.85135156,19.5435078 C2.81678906,19.5490313 2.78244531,19.5549922 2.74842969,19.5619375 C2.74635156,19.562375 2.74427344,19.5628672 2.74219531,19.5633047 C2.00025,19.7171953 1.38200781,20.2131563 1.06055469,20.878375 L1.06055469,20.878375 C1.04321875,20.9145234 1.02861719,20.9469531 1.0145625,20.9797656 C1.01133594,20.9873672 1.00827344,20.9950781 1.00515625,21.0026797 L1.00515625,21.0026797 L0.973601562,21.0826328 C0.968242187,21.0967969 0.963320312,21.1110703 0.95834375,21.1253438 C0.951179687,21.1457422 0.944125,21.1661406 0.937507812,21.1867578 C0.930890625,21.207375 0.92465625,21.2282109 0.918640625,21.2491016 C0.914429687,21.2634844 0.910328125,21.2777578 0.906390625,21.2921953 C0.899171875,21.3188281 0.892445312,21.3455703 0.886210937,21.3724766 C0.884132812,21.3812813 0.882054687,21.3901406 0.880085937,21.399 C0.87303125,21.4308281 0.866578125,21.4627656 0.860835937,21.4948672 L0.860835937,21.4948672 L0.84980957,21.5613057 L0.84980957,21.5613057 L0.842242187,21.6157266 L0.842242187,21.6157266 C0.83234375,21.6936016 0.826273437,21.7710391 0.823921875,21.8491328 C0.86340625,23.0933281 1.8668125,24.0664375 3.11325,24.0664375 L3.11325,24.0664375 L16.4934766,24.0664375 L18.1590391,22.400875 C18.3011719,22.2587969 18.5213437,22.2426641 18.6813594,22.3522578 C18.7020859,22.3664766 18.7218828,22.3824453 18.7403125,22.400875 C18.9008203,22.5613828 18.9008203,22.8215313 18.7403125,22.9820938 L18.7403125,22.9820938 L14.5890937,27.1332578 L27.1781562,27.1332578 L27.1781562,25.1731484 L26.4199141,25.1731484 C26.1929062,25.1731484 26.0089375,24.9891797 26.0089375,24.7621719 C26.0089375,24.5352188 26.1929062,24.3511953 26.4199141,24.3511953 L26.4199141,24.3511953 L27.1781562,24.3511953 L27.1781562,23.1127422 L26.4199141,23.1127422 C26.1929062,23.1127422 26.0089375,22.9287734 26.0089375,22.7017656 C26.0089375,22.4747578 26.1929062,22.2907891 26.4199141,22.2907891 L26.4199141,22.2907891 L27.1781562,22.2907891 L27.1781562,21.0523906 L26.4199141,21.0523906 C26.1929062,21.0523906 26.0089375,20.8684219 26.0089375,20.6414141 C26.0089375,20.4144063 26.1929062,20.2304375 26.4199141,20.2304375 L26.4199141,20.2304375 L27.1781562,20.2304375 L27.1781562,18.9919844 L26.4199141,18.9919844 C26.1929062,18.9919844 26.0089375,18.8080156 26.0089375,18.5810078 C26.0089375,18.354 26.1929062,18.1700313 26.4199141,18.1700313 L26.4199141,18.1700313 L27.1781562,18.1700313 L27.1781562,14.5441406 L19.94825,21.7741016 L19.94825,21.7741016 L19.9327598,21.7888467 L19.9327598,21.7888467 L19.9168594,21.8024844 C19.8415547,21.8638984 19.7494609,21.8946328 19.6574766,21.8946328 C19.5654922,21.8946328 19.4734531,21.8638984 19.3980937,21.8024844 L19.3980937,21.8024844 L19.3668672,21.7742656 C19.2063594,21.6137578 19.2063594,21.3536094 19.3668672,21.1930469 L19.3668672,21.1930469 L25.2455547,15.3143047 L25.2455547,6.53444531 L21.6769219,6.53444531 L13.2035107,15.0068652 L13.2035107,15.0068652 L13.1865781,15.0211797 C13.1842812,15.0230391 13.1818203,15.024625 13.1794687,15.0264297 C13.1700078,15.0337578 13.1603828,15.0407031 13.1504844,15.0470469 C13.1474766,15.0489609 13.1443047,15.0506563 13.1412422,15.0525156 C13.1317266,15.0583125 13.1220469,15.0637266 13.1122031,15.0686484 L13.1009922,15.0738438 C13.0915312,15.0781641 13.0819609,15.0822109 13.0722266,15.0858203 C13.0701484,15.0865859 13.0681797,15.087625 13.0661016,15.0883906 L13.0661016,15.0883906 L10.5597734,15.973125 L18.7253281,15.973125 C18.9523359,15.973125 19.1363047,16.1570938 19.1363047,16.3841016 C19.1363047,16.6111094 18.9523359,16.7950781 18.7253281,16.7950781 L18.7253281,16.7950781 L7.34409375,16.7950781 C7.11714062,16.7950781 6.93311719,16.6111094 6.93311719,16.3841016 C6.93311719,16.1570938 7.11714062,15.973125 7.34409375,15.973125 L7.34409375,15.973125 L8.71084375,15.973125 C8.71472656,15.9520703 8.71992187,15.9311797 8.72714063,15.9106172 L8.72714063,15.9106172 L9.27303125,14.3641094 L10.0737109,12.0959453 C10.07475,12.0930469 10.0761719,12.0903125 10.0772656,12.0874141 L10.0772656,12.0874141 L10.0874375,12.0629688 C10.0898437,12.0576094 10.0921953,12.0524141 10.0948203,12.0472734 C10.0988125,12.0393438 10.1031875,12.0315781 10.1077266,12.0239219 C10.1105703,12.0190547 10.1133047,12.0142422 10.1163125,12.0095391 C10.1216172,12.0014453 10.1273047,11.9936797 10.1331016,11.9859688 L10.1331016,11.9859688 L10.1416328,11.974375 C10.1506562,11.9632188 10.1602812,11.9523359 10.1705625,11.9420547 L10.1705625,11.9420547 L12.0946328,10.0180391 C12.2550859,9.85758594 12.5152891,9.85758594 12.6757969,10.0180391 C12.8363047,10.1785469 12.8363047,10.4386953 12.6757969,10.5992578 L12.6757969,10.5992578 L11.0423906,12.2326641 L12.9293281,14.1196016 L21.4379375,5.6109375 L19.5510547,3.72394531 L16.86125,6.41375 C16.8611406,6.41380469 16.8610859,6.41391406 16.8609766,6.41402344 L16.8609766,6.41402344 L13.8874531,9.38754688 C13.727,9.548 13.4667969,9.548 13.3062891,9.38754688 C13.1457812,9.22703906 13.1457812,8.96689063 13.3062891,8.80632813 L13.3062891,8.80632813 L15.5782266,6.53439063 L3.64322656,6.53439063 L3.64322656,14.4784063 L3.63487604,14.5612805 C3.59654993,14.7485446 3.43083398,14.8894375 3.23225,14.8894375 C3.00529687,14.8894375 2.82127344,14.7054141 2.82127344,14.4784609 L2.82127344,14.4784609 Z M24.3274063,19.8488281 C24.4449844,19.7313047 24.6217344,19.6961406 24.7752969,19.7597969 C24.9288594,19.8233984 25.0289922,19.9732422 25.0290469,20.1394375 L25.0290469,20.1394375 L25.0290469,24.6307031 C25.0290469,24.8577109 24.8450781,25.0416797 24.6180703,25.0416797 L24.6180703,25.0416797 L20.1268047,25.0416797 C19.9606094,25.0416797 19.8106563,24.9416016 19.7471094,24.7879844 C19.6834531,24.6344219 19.7186172,24.4576719 19.8361406,24.3400938 L19.8361406,24.3400938 Z M24.2069844,21.1316328 L21.1188359,24.2197813 L24.2069844,24.2197813 L24.2069844,21.1316328 Z M10.6316875,12.9842891 L10.2161172,14.1614922 L11.0004453,14.9458203 L12.1776484,14.53025 L10.6316875,12.9842891 Z M20.8863594,2.38869531 L20.1323828,3.14278125 L22.0192656,5.02971875 L22.7733516,4.27563281 L20.8863594,2.38869531 Z M22.89175,0.993070313 C22.72375,0.824960938 22.4500391,0.824960938 22.2820391,0.993070313 L22.2820391,0.993070313 L21.4675781,1.80747656 L23.354625,3.69446875 L24.1689766,2.8800625 C24.3370859,2.71195313 24.3370859,2.43835156 24.1689766,2.27029688 L24.1689766,2.27029688 Z" id="Combined-Shape"></path>
                </g>
            </g>
        </g>
    </g>
</svg>