<?xml version="1.0" encoding="UTF-8"?>
<svg width="50px" height="50px" viewBox="0 0 50 50" version="1.1" xmlns="http://www.w3.org/2000/svg" xmlns:xlink="http://www.w3.org/1999/xlink">
    <title>icon-construction</title>
    <g id="ClientSide-Proposal" stroke="none" stroke-width="1" fill="none" fill-rule="evenodd">
        <g id="ClientSide---Proposal" transform="translate(-137.000000, -1008.000000)">
            <g id="icon-construction" transform="translate(137.000000, 1008.000000)">
                <rect id="Rectangle" fill="#07A39D" x="0" y="0" width="50" height="50" rx="3"></rect>
                <g id="real-estate" transform="translate(9.000000, 13.000000)" fill="#FFFFFF" fill-rule="nonzero">
                    <path d="M24.5333333,0.533333312 C24.7716667,0.533333312 24.9810667,0.691333333 25.0464,0.920533333 L25.0464,0.920533333 L27.1797333,8.3872 C27.1932667,8.43473333 27.2001333,8.484 27.2001333,8.53346667 C27.2000667,8.828 26.9612,9.06673333 26.6666667,9.06666667 L26.6666667,9.06666667 L25.6,9.06666667 L25.6,20.8 L28.8,20.8 C29.0945333,20.8 29.3333333,21.0388 29.3333333,21.3333333 L29.3333333,21.3333333 L29.3333333,23.4666667 C29.3333333,23.7612 29.0945333,24 28.8,24 L28.8,24 L3.2,24 C2.90546667,24 2.66666667,23.7612 2.66666667,23.4666667 L2.66666667,23.4666667 L2.66666667,21.3333333 C2.66666667,21.0388 2.90546667,20.8 3.2,20.8 L3.2,20.8 L6.4,20.8 L6.4,9.06666667 L5.33333333,9.06666667 C5.28386667,9.06666667 5.2346,9.0598 5.18706667,9.04626667 C4.9038,8.96553333 4.73953333,8.67046667 4.82026667,8.3872 L4.82026667,8.3872 L6.9536,0.920533333 C7.01893333,0.691333333 7.22833333,0.533333312 7.46666667,0.533333312 L7.46666667,0.533333312 Z M28.2666667,21.8666667 L3.73333333,21.8666667 L3.73333333,22.9333333 L28.2666667,22.9333333 L28.2666667,21.8666667 Z M24.5333333,9.06666667 L7.46666667,9.06666667 L7.46666667,20.8 L8.53333333,20.8 L8.53333333,12.8 C8.53333333,12.5054667 8.77213333,12.2666667 9.06666667,12.2666667 L9.06666667,12.2666667 L14.4,12.2666667 C14.6945333,12.2666667 14.9333333,12.5054667 14.9333333,12.8 L14.9333333,12.8 L14.9333333,20.8 L24.5333333,20.8 L24.5333333,9.06666667 Z M13.8666667,13.3333333 L9.6,13.3333333 L9.6,20.8 L13.8666667,20.8 L13.8666667,13.3333333 Z M22.4,12.8 C22.6945333,12.8 22.9333333,13.0388 22.9333333,13.3333333 L22.9333333,13.3333333 L22.9333333,17.6 C22.9333333,17.8945333 22.6945333,18.1333333 22.4,18.1333333 L22.4,18.1333333 L17.0666667,18.1333333 C16.7721333,18.1333333 16.5333333,17.8945333 16.5333333,17.6 L16.5333333,17.6 L16.5333333,13.3333333 C16.5333333,13.0388 16.7721333,12.8 17.0666667,12.8 L17.0666667,12.8 Z M21.8666667,13.8666667 L17.6,13.8666667 L17.6,17.0666667 L21.8666667,17.0666667 L21.8666667,13.8666667 Z M29.3333333,9.6 C29.6278667,9.6 29.8666667,9.8388 29.8666667,10.1333333 C29.8666667,11.017 30.583,11.7333333 31.4666667,11.7333333 C31.7612,11.7333333 32,11.9721333 32,12.2666667 C32,12.5612 31.7612,12.8 31.4666667,12.8 C30.583,12.8 29.8666667,13.5163333 29.8666667,14.4 C29.8666667,14.6945333 29.6278667,14.9333333 29.3333333,14.9333333 C29.0388,14.9333333 28.8,14.6945333 28.8,14.4 C28.8,13.5163333 28.0836667,12.8 27.2,12.8 C26.9054667,12.8 26.6666667,12.5612 26.6666667,12.2666667 C26.6666667,11.9721333 26.9054667,11.7333333 27.2,11.7333333 C28.0836667,11.7333333 28.8,11.017 28.8,10.1333333 C28.8,9.8388 29.0388,9.6 29.3333333,9.6 Z M4.26666667,12.2666667 L4.26666667,13.3333333 L3.2,13.3333333 L3.2,12.2666667 L4.26666667,12.2666667 Z M29.3333333,11.7333333 C29.1816,11.9354 29.0020667,12.1149333 28.8,12.2666667 C29.0020667,12.4184 29.1816,12.5979333 29.3333333,12.8 C29.4850667,12.5979333 29.6646,12.4184 29.8666667,12.2666667 C29.6646,12.1149333 29.4850667,11.9354 29.3333333,11.7333333 Z M3.2,11.2 L3.2,12.2666667 L2.13333333,12.2666667 L2.13333333,11.2 L3.2,11.2 Z M5.33333333,11.2 L5.33333333,12.2666667 L4.26666667,12.2666667 L4.26666667,11.2 L5.33333333,11.2 Z M4.26666667,10.1333333 L4.26666667,11.2 L3.2,11.2 L3.2,10.1333333 L4.26666667,10.1333333 Z M24.1312,1.6 L7.8688,1.6 L6.04053333,8 L25.9594667,8 L24.1312,1.6 Z M30.9333333,6.93333333 L30.9333333,8 L29.8666667,8 L29.8666667,6.93333333 L30.9333333,6.93333333 Z M29.8666667,5.86666667 L29.8666667,6.93333333 L28.8,6.93333333 L28.8,5.86666667 L29.8666667,5.86666667 Z M32,5.86666667 L32,6.93333333 L30.9333333,6.93333333 L30.9333333,5.86666667 L32,5.86666667 Z M30.9333333,4.8 L30.9333333,5.86666667 L29.8666667,5.86666667 L29.8666667,4.8 L30.9333333,4.8 Z M2.66666667,-2.28483898e-12 C2.9612,-2.28483898e-12 3.2,0.2388 3.2,0.533333333 C3.2,1.417 3.91633333,2.13333333 4.8,2.13333333 C5.09453333,2.13333333 5.33333333,2.37213333 5.33333333,2.66666667 C5.33333333,2.9612 5.09453333,3.2 4.8,3.2 C3.91633333,3.2 3.2,3.91633333 3.2,4.8 C3.2,5.09453333 2.9612,5.33333333 2.66666667,5.33333333 C2.37213333,5.33333333 2.13333333,5.09453333 2.13333333,4.8 C2.13333333,3.91633333 1.417,3.2 0.533333333,3.2 C0.2388,3.2 1.12576615e-12,2.9612 1.12576615e-12,2.66666667 C1.12576615e-12,2.37213333 0.2388,2.13333333 0.533333333,2.13333333 C1.417,2.13333333 2.13333333,1.417 2.13333333,0.533333333 C2.13333333,0.2388 2.37213333,-2.28483898e-12 2.66666667,-2.28483898e-12 Z M2.66666667,2.13333333 C2.51493333,2.3354 2.3354,2.51493333 2.13333333,2.66666667 C2.3354,2.8184 2.51493333,2.99793333 2.66666667,3.2 C2.8184,2.99793333 2.99793333,2.8184 3.2,2.66666667 C2.99793333,2.51493333 2.8184,2.3354 2.66666667,2.13333333 Z" id="Combined-Shape"></path>
                </g>
            </g>
        </g>
    </g>
</svg>