<?xml version="1.0" encoding="UTF-8"?>
<svg width="50px" height="50px" viewBox="0 0 50 50" version="1.1" xmlns="http://www.w3.org/2000/svg" xmlns:xlink="http://www.w3.org/1999/xlink">
    <title>icon-materials</title>
    <g id="ClientSide-Proposal" stroke="none" stroke-width="1" fill="none" fill-rule="evenodd">
        <g id="ClientSide---Proposal" transform="translate(-137.000000, -768.000000)">
            <g id="icon-materials" transform="translate(137.000000, 768.000000)">
                <rect id="Rectangle" fill="#07A39D" x="0" y="0" width="50" height="50" rx="3"></rect>
                <g id="different" transform="translate(13.000000, 9.000000)" fill="#FFFFFF" fill-rule="nonzero">
                    <path d="M5.57582869,0.0287474333 C8.46699912,-0.234086242 10.9900998,1.92094456 11.3055515,4.75975359 C11.6210032,7.59830597 9.51833382,10.1740247 6.62716339,10.4894764 L6.62716339,10.4894764 L6.62716339,13.2227926 C7.57326199,13.4856263 8.20416544,14.3267454 8.20416544,15.2731006 L8.20416544,15.2731006 L8.20416544,15.5882957 L12.1992886,20.5297741 C12.724956,21.1604209 12.6723379,22.0541581 12.0940525,22.6324435 L12.0940525,22.6324435 L11.3581696,23.3683265 L11.3581696,24.8400924 C11.3581696,25.2607803 11.200572,25.6285934 10.8851203,25.9440452 L10.8851203,25.9440452 L10.3068348,26.5223306 L10.3068348,27.3634497 L11.3581696,27.3634497 L11.3581696,31.5687885 L10.3068348,31.5687885 L10.3068348,28.4147844 L3.47315928,28.4147844 L3.47315928,29.4661191 L7.15283074,29.4661191 L7.15283074,30.5174538 L3.47315928,30.5174538 L3.47315928,31.5687885 L2.42182458,31.5687885 L2.42182458,27.3634497 L3.47315928,27.3634497 L3.47315928,26.4697126 L1.63332356,23.7361396 C1.47572599,23.473306 1.37048988,23.1581109 1.37048988,22.8426592 L1.37048988,22.8426592 L1.37048988,19.3732033 C1.37048988,18.9527721 1.52808745,18.5847023 1.84353918,18.2692505 L1.84353918,18.2692505 L3.99882664,16.113963 L3.99882664,15.2731006 C3.99882664,14.2741273 4.62973009,13.4856263 5.57582869,13.2227926 L5.57582869,13.2227926 L5.57582869,10.4894764 C3.1050895,10.2792608 1.1076562,8.28157083 0.897440582,5.8110883 C0.581988853,2.91991786 2.68465826,0.291581109 5.57582869,0.0287474333 Z M17.1405104,3.76078029 C19.4007774,3.44558522 21.5034468,5.07494867 21.8188985,7.38809035 C22.1343502,9.64835732 20.5047301,11.7510267 18.1918451,12.0664785 L18.1918451,12.0664785 L18.1918451,14.8524127 C18.8227486,15.0626283 19.2431798,15.6409137 19.2431798,16.3244353 L19.2431798,16.3244353 L19.2431798,17.1652977 L22.3445659,20.1617043 C22.7652537,20.5821355 22.9228513,21.213039 22.7126357,21.7913245 L22.7126357,21.7913245 L22.3971839,22.6848049 L22.3971839,23.6311602 C22.3971839,24.1568275 22.1343502,24.6298768 21.713919,24.9453286 L21.713919,24.9453286 L20.8201819,25.523614 L20.8201819,26.312115 L21.8715166,26.312115 L21.8715166,31.5687885 L20.8201819,31.5687885 L20.8201819,27.3634497 L15.5635084,27.3634497 L15.5635084,28.4147844 L19.7688472,28.4147844 L19.7688472,29.4661191 L15.5635084,29.4661191 L15.5635084,31.5687885 L14.5121737,31.5687885 L14.5121737,26.312115 L15.5635084,26.312115 L15.5635084,25.4709959 L13.8289087,23.473306 C13.6184365,23.1581109 13.460839,22.7900411 13.460839,22.4219713 L13.460839,22.4219713 L13.460839,20.0041068 C13.460839,19.5308008 13.6710546,19.1103696 14.0391244,18.847536 L14.0391244,18.847536 L16.0891757,17.1129363 L16.0891757,16.3244353 C16.0891757,15.6409137 16.509607,15.0626283 17.1405104,14.8524127 L17.1405104,14.8524127 L17.1405104,12.0664785 C15.2480566,11.8562628 13.7762907,10.3316222 13.513457,8.43942505 C13.1980053,6.17890142 14.8276254,4.07623202 17.1405104,3.76078029 Z M9.25550015,29.4661191 L9.25550015,30.5174538 L8.20416544,30.5174538 L8.20416544,29.4661191 L9.25550015,29.4661191 Z M6.10149604,14.2217659 C5.52321064,14.2217659 5.05016134,14.6948152 5.05016134,15.2731006 L5.05016134,15.2731006 L5.05016134,19.5834189 C5.05016134,20.0041068 4.89256377,20.3719199 4.57711204,20.6873717 L4.57711204,20.6873717 L3.84122907,21.4232546 L3.1050895,20.6873717 L3.84122907,19.9514887 C3.94620858,19.8462526 3.99882664,19.7412731 3.99882664,19.5834189 L3.99882664,19.5834189 L3.99882664,17.5859856 L2.57942215,19.0051335 C2.47444264,19.1103696 2.42182458,19.2156057 2.42182458,19.3732033 L2.42182458,19.3732033 L2.42182458,22.8426592 C2.42182458,22.9476386 2.47444264,23.0528748 2.52706069,23.1581109 L2.52706069,23.1581109 L4.52449399,26.1542608 L4.52449399,27.3634497 L9.25550015,27.3634497 L9.25550015,26.1016427 L10.1492373,25.2081622 C10.2542168,25.1029261 10.3068348,24.9979466 10.3068348,24.8400924 L10.3068348,24.8400924 L10.3068348,23.3683265 L7.15283074,20.2143224 L7.15283074,15.2731006 C7.15283074,14.6948152 6.67978144,14.2217659 6.10149604,14.2217659 Z M17.6661778,15.798768 C17.350726,15.798768 17.1405104,16.0089836 17.1405104,16.3244353 L17.1405104,16.3244353 L17.1405104,20.0564682 C17.1405104,20.4771561 16.9829128,20.8449692 16.6674611,21.1604209 L16.6674611,21.1604209 L15.9315781,21.8963039 L15.1954386,21.1604209 L15.9315781,20.424538 C16.0365577,20.3193018 16.0891757,20.2143224 16.0891757,20.0564682 L16.0891757,20.0564682 L16.0891757,18.4271047 L14.7223893,19.5834189 C14.5647917,19.688655 14.5121737,19.8462526 14.5121737,20.0041068 L14.5121737,20.0041068 L14.5130155,22.5107639 C14.5163831,22.6218275 14.5332209,22.7058522 14.6174098,22.7900411 L14.6174098,22.7900411 L16.6148431,25.050308 L16.6148431,26.312115 L19.7688472,26.312115 L19.7688472,24.9979466 L21.1356336,24.0515914 C21.2406131,23.9466119 21.3458492,23.7887577 21.3458492,23.6311602 L21.3458492,23.6311602 L21.3458492,22.8952772 L18.1918451,20.7926078 L18.1918451,16.3244353 C18.1918451,16.0089836 17.9816295,15.798768 17.6661778,15.798768 Z M11.0953359,20.8449692 L10.0440012,21.6334702 L10.8325022,22.4219713 L11.3581696,21.8963039 C11.5683852,21.6860883 11.5683852,21.3706366 11.3581696,21.1604209 L11.3581696,21.1604209 L11.0953359,20.8449692 Z M20.9777794,20.3719199 L20.6099662,21.1604209 L21.6086829,21.8439425 L21.713919,21.5284908 C21.7662805,21.3182752 21.713919,21.1078029 21.5560648,20.9502054 L21.5560648,20.9502054 L20.9777794,20.3719199 Z M9.72854944,19.1103696 L8.46699912,20.0564682 L9.3081182,20.8449692 L10.4644324,20.0041068 L9.72854944,19.1103696 Z M19.2431798,18.6373203 L19.2431798,20.2669405 L19.7162291,20.5297741 L20.1892784,19.5834189 L19.2431798,18.6373203 Z M8.20416544,17.2705339 L8.20416544,18.9527721 L9.04528452,18.3218686 L8.20416544,17.2705339 Z M17.6661778,4.75975359 C15.9315781,4.75975359 14.5121737,6.17890142 14.5121737,7.9137577 C14.5121737,9.64835732 15.9315781,11.0677618 17.6661778,11.0677618 C19.4007774,11.0677618 20.8201819,9.64835732 20.8201819,7.9137577 C20.8201819,6.17890142 19.4007774,4.75975359 17.6661778,4.75975359 Z M18.87511,5.96868586 L19.6112496,6.70456877 L18.4020607,7.9137577 L19.6112496,9.12268997 L18.87511,9.85857288 L17.6661778,8.64964067 L16.4572455,9.85857288 L15.7211059,9.12268997 L16.9302948,7.9137577 L15.7211059,6.70456877 L16.4572455,5.96868586 L17.6661778,7.17761807 L18.87511,5.96868586 Z M6.10149604,1.08008214 C3.78861101,1.08008214 1.89615723,2.97227926 1.89615723,5.28542094 C1.89615723,7.59830597 3.78861101,9.49075975 6.10149604,9.49075975 C8.41438107,9.49075975 10.3068348,7.59830597 10.3068348,5.28542094 C10.3068348,2.97227926 8.41438107,1.08008214 6.10149604,1.08008214 Z M7.83609566,2.81468176 L8.57223523,3.55056467 L4.52449399,7.59830597 L3.1050895,6.17890142 L3.84122907,5.44301851 L4.52449399,6.12628337 L7.83609566,2.81468176 Z" id="Combined-Shape"></path>
                </g>
            </g>
        </g>
    </g>
</svg>