<?xml version="1.0" encoding="UTF-8"?>
<svg width="50px" height="50px" viewBox="0 0 50 50" version="1.1" xmlns="http://www.w3.org/2000/svg" xmlns:xlink="http://www.w3.org/1999/xlink">
    <title>icon-postConstruction</title>
    <g id="ClientSide-Proposal" stroke="none" stroke-width="1" fill="none" fill-rule="evenodd">
        <g id="ClientSide---Proposal" transform="translate(-137.000000, -1149.000000)">
            <g id="icon-postConstruction" transform="translate(137.000000, 1149.000000)">
                <rect id="Rectangle" fill="#07A39D" x="0" y="0" width="50" height="50" rx="3"></rect>
                <g id="partner" transform="translate(10.000000, 13.000000)" fill="#FFFFFF" fill-rule="nonzero">
                    <path d="M23.6960234,0.224853801 C24.3636842,-0.160584795 25.2201754,0.0690643275 25.6054971,0.736491228 L25.6054971,0.736491228 L26.3430409,2.01397661 C26.5045614,2.29368421 26.4087135,2.65134503 26.1290058,2.81280702 C25.8493567,2.97438596 25.4916959,2.87853801 25.3301754,2.59877193 L25.3301754,2.59877193 L24.5926316,1.32128655 C24.5297661,1.2122807 24.3897661,1.17497076 24.2807602,1.23777778 L24.2807602,1.23777778 L22.2183626,2.42847953 C22.1093567,2.49146199 22.0718713,2.63134503 22.1347953,2.74035088 L22.1347953,2.74035088 L26.2839181,9.92666667 C26.3468421,10.0355556 26.4866082,10.0730409 26.595731,10.0102339 L26.595731,10.0102339 L28.6581871,8.81947368 C28.7294152,8.77836257 28.7554386,8.71497076 28.7645614,8.68087719 C28.7736842,8.64678363 28.7828655,8.57894737 28.7416959,8.5077193 L28.7416959,8.5077193 L27.9617544,7.15678363 C27.8002339,6.87707602 27.8960819,6.5194152 28.1757895,6.35795322 C28.455731,6.19649123 28.8131579,6.29233918 28.9746199,6.5719883 L28.9746199,6.5719883 L29.7545614,7.92292398 C29.9412281,8.24625731 29.9908187,8.62280702 29.894152,8.98350877 C29.7974854,9.34421053 29.5661404,9.64561404 29.242807,9.83233918 L29.242807,9.83233918 L27.1803509,11.0230409 C26.9608187,11.1497661 26.7208187,11.21 26.4838012,11.21 C26.4278363,11.21 26.3721053,11.2062573 26.3167836,11.1996491 L26.3167836,11.1996491 L23.8253801,13.6910526 L25.1902924,15.0559649 C26.0105263,15.8762573 26.0105263,17.2109357 25.1902924,18.0312281 C24.7929825,18.428655 24.2645614,18.6474854 23.7026316,18.6474854 C23.4736842,18.6474854 23.2505263,18.6105848 23.0392982,18.5406433 C22.9577193,18.9406433 22.7612281,19.3082456 22.4659649,19.6035673 C22.068655,20.0009357 21.5402924,20.2197661 20.9783626,20.2197661 C20.5644444,20.2197661 20.1690058,20.1007018 19.8304678,19.8793567 C19.7307018,20.2016374 19.5536842,20.4970175 19.3083041,20.7423977 C18.8982456,21.1525146 18.3593567,21.3575439 17.8207018,21.3576023 C17.381345,21.3576608 16.9421637,21.2212281 16.5725731,20.9484795 C16.4736842,21.2563158 16.302924,21.5459064 16.0590058,21.7898246 L16.0590058,21.7898246 L15.227076,22.6216959 C14.8297661,23.0190643 14.3014035,23.2378947 13.7394737,23.2378947 C13.1775439,23.2378947 12.6492398,23.0190058 12.2518713,22.6216959 C11.8545029,22.224386 11.6356725,21.6960234 11.6356725,21.1340936 C11.6356725,21.1188304 11.6364327,21.1037427 11.6367836,21.088538 C11.6215789,21.0888889 11.6064912,21.0896491 11.5912281,21.0896491 C11.0292982,21.0896491 10.5009942,20.8708187 10.1036257,20.4734503 C9.70625731,20.0761404 9.4874269,19.5478363 9.4874269,18.985848 C9.4874269,18.9705848 9.48818713,18.9554971 9.48853801,18.9402924 C9.47333333,18.9406433 9.45824561,18.9414035 9.44298246,18.9414035 C8.88105263,18.9414035 8.35274854,18.7225731 7.95538012,18.3252047 C7.5580117,17.9278947 7.33918129,17.3995906 7.33918129,16.8376023 C7.33918129,16.7628655 7.34333333,16.6888304 7.35099415,16.6154971 C6.85187135,16.5879532 6.36076023,16.384269 5.9802924,16.0038596 C5.58292398,15.6065497 5.36409357,15.0781871 5.36409357,14.5162573 C5.36409357,14.3780117 5.37748538,14.2419298 5.40333333,14.1092398 L5.40333333,14.1092398 L3.71526316,12.4211111 C3.63081871,12.4367836 3.54491228,12.4451462 3.45853801,12.4451462 C3.22152047,12.4451462 2.98157895,12.3849123 2.7619883,12.2581287 L2.7619883,12.2581287 L0.699532164,11.0673684 C0.376140351,10.8807018 0.144795322,10.5792982 0.0481871345,10.2185965 C-0.0484210526,9.85789474 0.00122807017,9.48116959 0.187894737,9.15783626 L0.187894737,9.15783626 L4.33695906,1.97146199 C4.52362573,1.64812865 4.82508772,1.41678363 5.18573099,1.32017544 C5.54625731,1.22356725 5.92309942,1.27309942 6.24649123,1.45982456 L6.24649123,1.45982456 L8.30894737,2.6505848 C8.64637427,2.8454386 8.87169591,3.16076023 8.96239766,3.51111111 L8.96239766,3.51111111 L10.7778363,3.51111111 C11.3190058,3.51111111 11.8571345,3.57549708 12.3823977,3.70070175 L12.3823977,3.70070175 L12.981462,3.10163743 C13.5619883,2.52116959 14.3337427,2.20152047 15.1546199,2.20152047 L15.1546199,2.20152047 L21.0014035,2.20152047 C21.1034503,1.88128655 21.3202339,1.59654971 21.6335673,1.41561404 L21.6335673,1.41561404 Z M14.571462,19.3684795 C14.3321637,19.3684795 14.092924,19.4595322 13.9108187,19.6416959 L13.9108187,19.6416959 L13.0789474,20.4735673 C12.9024561,20.6500585 12.8052632,20.8846199 12.8052632,21.1342105 C12.8052632,21.3837427 12.9024561,21.6183041 13.0789474,21.7947953 C13.2553801,21.9712281 13.4899415,22.0684211 13.7395322,22.0684211 C13.9891228,22.0684211 14.2236842,21.9712281 14.400117,21.7947953 L14.400117,21.7947953 L15.2320468,20.9628655 C15.5963158,20.5985965 15.5963158,20.005848 15.2320468,19.6416374 C15.0499415,19.4595906 14.8106433,19.3684795 14.571462,19.3684795 Z M10.7777778,4.68070175 L8.75087719,4.68070175 L4.67994152,11.7318129 L5.97853801,13.0304094 L5.97853801,13.0304094 L6.48497076,12.5239181 C7.30526316,11.7038012 8.64,11.7036257 9.4602924,12.5239181 C9.83421053,12.8978363 10.0499415,13.3877778 10.0740936,13.9125146 C10.6776023,13.8551462 11.3014035,14.0569591 11.7625731,14.5181287 C12.1599415,14.9154971 12.3787719,15.4438012 12.3787719,16.0057895 C12.3787719,16.021345 12.3780117,16.0367836 12.3776608,16.0522807 C12.9315205,16.0404094 13.4891813,16.2446784 13.9108772,16.6663743 C14.3082456,17.0637427 14.527076,17.5921053 14.527076,18.1540351 L14.527076,18.1540351 L14.5259649,18.2005848 C15.0777778,18.1887135 15.6333333,18.3915789 16.0545029,18.8102339 C16.0560234,18.8116959 16.0577193,18.8129825 16.0592398,18.8145029 L16.0592398,18.8145029 L17.1601754,19.9154386 C17.5245029,20.2798246 18.117193,20.2797076 18.4814035,19.9154386 C18.6578947,19.7390058 18.7550877,19.504386 18.7550877,19.2548538 C18.7550877,19.0053216 18.6578947,18.7707018 18.4814035,18.594269 L18.4814035,18.594269 L13.4755556,13.5883626 C13.247193,13.36 13.247193,12.9897076 13.4755556,12.761345 C13.7039766,12.5330409 14.074269,12.5330409 14.3026316,12.761345 L14.3026316,12.761345 L20.3178947,18.7766082 C20.4943275,18.9530409 20.7288889,19.0502339 20.9784795,19.0502339 C21.2280702,19.0502339 21.4626316,18.9530409 21.6390643,18.7766082 C21.8155556,18.600117 21.9127485,18.3654971 21.9127485,18.1159649 C21.9127485,17.8664327 21.8155556,17.6318129 21.6390643,17.4553801 L21.6390643,17.4553801 L16.6332164,12.4494737 C16.4048538,12.2211111 16.4048538,11.8508187 16.6332164,11.6224561 C16.8617544,11.3940936 17.2319298,11.394152 17.4602924,11.6224561 L17.4602924,11.6224561 L23.0421637,17.2043275 C23.218655,17.3808187 23.4532164,17.4780117 23.7027485,17.4780117 C23.9523392,17.4780117 24.1869006,17.3808187 24.3633918,17.2043275 C24.7276023,16.840117 24.7276023,16.2473684 24.3633333,15.8831579 L24.3633333,15.8831579 L15.2569006,6.77678363 L13.6781871,8.35549708 C13.2680702,8.76567251 12.7292982,8.97070175 12.1905263,8.97070175 C11.6518713,8.97070175 11.1130994,8.76561404 10.702924,8.35549708 C10.3055556,7.95812865 10.0867251,7.42982456 10.0867251,6.86783626 C10.0867251,6.30590643 10.3055556,5.77754386 10.702924,5.38017544 L10.702924,5.38017544 L11.3714035,4.71169591 C11.1744444,4.69122807 10.9763743,4.68070175 10.7777778,4.68070175 L10.7777778,4.68070175 Z M12.4231579,17.2202339 C12.1839181,17.2202339 11.9446784,17.3112865 11.7625731,17.4933918 L11.7625731,17.4933918 L10.9307018,18.3252632 C10.7542105,18.5017544 10.6570175,18.7363743 10.6570175,18.9859064 C10.6570175,19.2354386 10.7542105,19.4700585 10.9307018,19.6464912 C11.1071345,19.822924 11.3416959,19.920117 11.5912865,19.920117 C11.8408772,19.920117 12.0754971,19.822924 12.2519298,19.6464912 L12.2519298,19.6464912 L13.0838012,18.8146199 C13.2602924,18.6381871 13.3574854,18.4035673 13.3574854,18.1540351 C13.3574854,17.9045029 13.2602924,17.669883 13.0838012,17.4934503 C12.9016959,17.3112865 12.6623977,17.2202339 12.4231579,17.2202339 Z M10.2749123,15.0719883 C10.0356725,15.0719883 9.79643275,15.1630409 9.61432749,15.3451462 L9.61432749,15.3451462 L8.78245614,16.1770175 C8.60596491,16.3534503 8.50877193,16.5880702 8.50877193,16.8376023 C8.50877193,17.0871345 8.60596491,17.3217544 8.78245614,17.4981871 C8.95888889,17.6746199 9.19345029,17.7718129 9.44304094,17.7718129 C9.6925731,17.7718129 9.92719298,17.6746784 10.1036842,17.4981871 L10.1036842,17.4981871 L10.9355556,16.6663158 C11.1120468,16.489883 11.2092398,16.2552632 11.2092398,16.005731 C11.2092398,15.7561988 11.1120468,15.5215789 10.9355556,15.3451462 C10.7534503,15.1630409 10.5142105,15.0719883 10.2749123,15.0719883 Z M7.97269006,13.0776608 C7.73339181,13.0776608 7.49415205,13.1687135 7.31204678,13.3508772 L7.31204678,13.3508772 L6.80736842,13.8555556 C6.63087719,14.0320468 6.53368421,14.2666082 6.53368421,14.5161988 C6.53368421,14.765731 6.63087719,15.0003509 6.80736842,15.1767251 C7.17163743,15.5409942 7.76432749,15.5410526 8.12859649,15.1767251 L8.12859649,15.1767251 L8.63327485,14.6720468 C8.80976608,14.495614 8.90695906,14.2609942 8.90695906,14.011462 C8.90695906,13.7619298 8.80976608,13.5273684 8.63327485,13.3508772 C8.45116959,13.1687719 8.21187135,13.0776608 7.97269006,13.0776608 Z M21.1484795,3.37111111 L15.1546199,3.37111111 C14.6460819,3.37111111 14.1680117,3.56912281 13.8084795,3.92865497 L13.8084795,3.92865497 L11.5299415,6.20719298 C11.3534503,6.38368421 11.2562573,6.61830409 11.2562573,6.86783626 C11.2562573,7.11736842 11.3534503,7.3519883 11.5299415,7.52842105 C11.8942105,7.89263158 12.4869006,7.89269006 12.8511696,7.52842105 L12.8511696,7.52842105 L14.8466667,5.53292398 C15.0750877,5.3045614 15.4447368,5.31052632 15.6731579,5.53888889 L15.6731579,5.53888889 L17.9005263,7.76625731 C18.5443275,7.38152047 18.9478363,6.68473684 18.9478363,5.92081871 C18.9478363,5.59783626 19.2097076,5.33602339 19.5326316,5.33602339 C19.8555556,5.33602339 20.1174269,5.59783626 20.1174269,5.92081871 C20.1174269,7.00064327 19.5957895,7.9945614 18.7447953,8.61046784 L18.7447953,8.61046784 L22.9984795,12.864152 L25.3017544,10.5608772 L25.3017544,10.5608772 L25.2709942,10.5115789 L21.1484795,3.37111111 Z M5.54818713,2.44216374 C5.52374269,2.44216374 5.50304094,2.44608187 5.48847953,2.44994152 C5.45438596,2.45906433 5.39099415,2.48502924 5.34988304,2.55625731 L5.34988304,2.55625731 L1.20081871,9.74269006 C1.15964912,9.81397661 1.16883041,9.88181287 1.17795322,9.91590643 C1.18707602,9.95005848 1.21304094,10.0133918 1.28426901,10.0545029 L1.28426901,10.0545029 L3.34678363,11.2452632 C3.45584795,11.3081871 3.59561404,11.2706433 3.65859649,11.1616959 L3.65859649,11.1616959 L7.80766082,3.97532164 C7.8705848,3.86631579 7.83304094,3.72643275 7.72409357,3.66350877 L7.72409357,3.66350877 L5.66163743,2.47274854 C5.62081871,2.44923977 5.58111111,2.44216374 5.54818713,2.44216374 Z M27.1525146,4.00081871 C27.3063158,4.00081871 27.4566082,4.06280702 27.5659649,4.17157895 C27.6747368,4.28093567 27.7373099,4.43122807 27.7373099,4.58561404 C27.7373099,4.7394152 27.6746784,4.8897076 27.5659649,4.99906433 C27.4566082,5.10783626 27.3063158,5.17040936 27.1525146,5.17040936 C26.9981287,5.17040936 26.8478363,5.10789474 26.7390643,4.99906433 C26.6297076,4.8897076 26.5677193,4.7394152 26.5677193,4.58561404 C26.5677193,4.43122807 26.6297076,4.28093567 26.7390643,4.17157895 C26.8478363,4.06280702 26.9981287,4.00081871 27.1525146,4.00081871 Z" id="Combined-Shape"></path>
                </g>
            </g>
        </g>
    </g>
</svg>