<?xml version="1.0" encoding="UTF-8"?>
<svg width="50px" height="50px" viewBox="0 0 50 50" version="1.1" xmlns="http://www.w3.org/2000/svg" xmlns:xlink="http://www.w3.org/1999/xlink">
    <title>icon-preConstruction</title>
    <g id="ClientSide-Proposal" stroke="none" stroke-width="1" fill="none" fill-rule="evenodd">
        <g id="ClientSide---Proposal" transform="translate(-137.000000, -888.000000)">
            <g id="icon-preConstruction" transform="translate(137.000000, 888.000000)">
                <rect id="Rectangle" fill="#07A39D" x="0" y="0" width="50" height="50" rx="3"></rect>
                <g id="interview" transform="translate(11.000000, 10.000000)" fill="#FFFFFF" fill-rule="nonzero" stroke="#FFFFFF" stroke-width="0.2">
                    <path d="M24.2666667,4.66666667 C26.3251333,4.66666667 28,6.34153333 28,8.4 C28,9.61053333 27.4180667,10.6852667 26.5225333,11.3675333 C27.3858667,11.7100667 28,12.5496 28,13.5333333 L28,13.5333333 L28,20.0666667 C28,21.3532667 26.9532667,22.4 25.6666667,22.4 L25.6666667,22.4 L25.6666667,28 L24.7333333,28 L24.7333333,22.4 L21.4666667,22.4 L21.4666667,27.5333333 C21.4666667,27.7914 21.2580667,28 21,28 L21,28 L17.7333333,28 C17.4752667,28 17.2666667,27.7914 17.2666667,27.5333333 L17.2666667,27.5333333 L17.2666667,20.5333333 C17.2666667,20.006 17.4491333,19.5244 17.7454667,19.1333333 L17.7454667,19.1333333 L14.4666667,19.1333333 L14.4666667,27.0666667 L16.3333333,27.0666667 L16.3333333,28 L11.6666667,28 L11.6666667,27.0666667 L13.5333333,27.0666667 L13.5333333,19.1333333 L10.2657333,19.1333333 C10.5592667,19.5234667 10.7333333,20.0083333 10.7333333,20.5333333 L10.7333333,20.5333333 L10.7333333,27.5333333 C10.7333333,27.7914 10.5247333,28 10.2666667,28 L10.2666667,28 L7,28 C6.74193333,28 6.53333333,27.7914 6.53333333,27.5333333 L6.53333333,27.5333333 L6.53333333,22.4 L3.26666667,22.4 L3.26666667,28 L2.33333333,28 L2.33333333,22.4 C1.04673333,22.4 0,21.3532667 0,20.0666667 L0,20.0666667 L0,13.5333333 C0,12.5496 0.614133333,11.7100667 1.47746667,11.3675333 C0.581933333,10.6852667 0,9.61053333 0,8.4 C0,6.34153333 1.67486667,4.66666667 3.73333333,4.66666667 C5.7918,4.66666667 7.46666667,6.34153333 7.46666667,8.4 C7.46666667,9.61053333 6.88473333,10.6852667 5.9892,11.3675333 C6.85253333,11.7100667 7.46666667,12.5496 7.46666667,13.5333333 L7.46666667,13.5333333 L7.46666667,15.4 L11.2,15.4 C11.4580667,15.4 11.6666667,15.6086 11.6666667,15.8666667 L11.6666667,15.8666667 L11.6666667,18.2 L12.817,18.2 L15.4784,14.2081333 L16.2549333,14.7256667 L13.9384,18.2 L21.9333333,18.2 L21.9333333,14.9333333 L18.2,14.9333333 C18.0758667,14.9333333 17.9573333,14.8843333 17.8700667,14.7966 L17.8700667,14.7966 L13.6700667,10.5966 C13.4876,10.4141333 13.4876,10.1192 13.6700667,9.93673333 L13.6700667,9.93673333 L15.5367333,8.07006667 C15.7192,7.8876 16.0141333,7.8876 16.1966,8.07006667 L16.1966,8.07006667 L19.3265333,11.2 L21.8054667,11.2 C21.0275333,10.5154 20.5333333,9.51533333 20.5333333,8.4 C20.5333333,6.34153333 22.2082,4.66666667 24.2666667,4.66666667 Z M5.13333333,12.1333333 L2.33333333,12.1333333 C1.56146667,12.1333333 0.933333333,12.7614667 0.933333333,13.5333333 L0.933333333,13.5333333 L0.933333333,20.0666667 C0.933333333,20.8385333 1.56146667,21.4666667 2.33333333,21.4666667 L2.33333333,21.4666667 L7,21.4666667 C7.25806667,21.4666667 7.46666667,21.6752667 7.46666667,21.9333333 L7.46666667,21.9333333 L7.46666667,27.0666667 L9.8,27.0666667 L9.8,20.5333333 C9.8,19.7614667 9.17186667,19.1333333 8.4,19.1333333 L8.4,19.1333333 L4.2,19.1333333 C3.94193333,19.1333333 3.73333333,18.9247333 3.73333333,18.6666667 L3.73333333,18.6666667 L3.73333333,14.4666667 L4.66666667,14.4666667 L4.66666667,18.2 L10.7333333,18.2 L10.7333333,16.3333333 L7,16.3333333 C6.74193333,16.3333333 6.53333333,16.1247333 6.53333333,15.8666667 L6.53333333,15.8666667 L6.53333333,13.5333333 C6.53333333,12.7614667 5.9052,12.1333333 5.13333333,12.1333333 L5.13333333,12.1333333 Z M15.8666667,9.05986667 L14.6598667,10.2666667 L18.3932,14 L22.4,14 C22.6580667,14 22.8666667,14.2086 22.8666667,14.4666667 L22.8666667,14.4666667 L22.8666667,18.6666667 C22.8666667,18.9247333 22.6580667,19.1333333 22.4,19.1333333 L22.4,19.1333333 L19.6,19.1333333 C18.8281333,19.1333333 18.2,19.7614667 18.2,20.5333333 L18.2,20.5333333 L18.2,27.0666667 L20.5333333,27.0666667 L20.5333333,21.9333333 C20.5333333,21.6752667 20.7419333,21.4666667 21,21.4666667 L21,21.4666667 L25.6666667,21.4666667 C26.4385333,21.4666667 27.0666667,20.8385333 27.0666667,20.0666667 L27.0666667,20.0666667 L27.0666667,13.5333333 C27.0666667,12.7614667 26.4385333,12.1333333 25.6666667,12.1333333 L25.6666667,12.1333333 L19.1333333,12.1333333 C19.0092,12.1333333 18.8906667,12.0843333 18.8034,11.9966 L18.8034,11.9966 L15.8666667,9.05986667 Z M3.73333333,5.6 C2.18913333,5.6 0.933333333,6.8558 0.933333333,8.4 C0.933333333,9.9442 2.18913333,11.2 3.73333333,11.2 C5.27753333,11.2 6.53333333,9.9442 6.53333333,8.4 C6.53333333,6.8558 5.27753333,5.6 3.73333333,5.6 Z M24.2666667,5.6 C22.7224667,5.6 21.4666667,6.8558 21.4666667,8.4 C21.4666667,9.9442 22.7224667,11.2 24.2666667,11.2 C25.8108667,11.2 27.0666667,9.9442 27.0666667,8.4 C27.0666667,6.8558 25.8108667,5.6 24.2666667,5.6 Z M18.6666667,7.2475359e-13 C19.4385333,7.2475359e-13 20.0666667,0.628133333 20.0666667,1.4 L20.0666667,1.4 L20.0666667,5.13333333 C20.0666667,5.9052 19.4385333,6.53333333 18.6666667,6.53333333 L18.6666667,6.53333333 L13.7265333,6.53333333 L10.5966,9.66326667 C10.5074667,9.7524 10.388,9.8 10.2666667,9.8 C10.2064667,9.8 10.1458,9.7888 10.0879333,9.76453333 C9.9134,9.69266667 9.8,9.52186667 9.8,9.33333333 L9.8,9.33333333 L9.8,6.53333333 L9.33333333,6.53333333 C8.56146667,6.53333333 7.93333333,5.9052 7.93333333,5.13333333 L7.93333333,5.13333333 L7.93333333,1.4 C7.93333333,0.628133333 8.56146667,7.2475359e-13 9.33333333,7.2475359e-13 L9.33333333,7.2475359e-13 Z M18.6666667,0.933333333 L9.33333333,0.933333333 C9.07573333,0.933333333 8.86666667,1.1424 8.86666667,1.4 L8.86666667,1.4 L8.86666667,5.13333333 C8.86666667,5.39093333 9.07573333,5.6 9.33333333,5.6 L9.33333333,5.6 L10.2666667,5.6 C10.5247333,5.6 10.7333333,5.8086 10.7333333,6.06666667 L10.7333333,6.06666667 L10.7333333,8.2068 L13.2034,5.73673333 C13.2906667,5.649 13.4092,5.6 13.5333333,5.6 L13.5333333,5.6 L18.6666667,5.6 C18.9242667,5.6 19.1333333,5.39093333 19.1333333,5.13333333 L19.1333333,5.13333333 L19.1333333,1.4 C19.1333333,1.1424 18.9242667,0.933333333 18.6666667,0.933333333 L18.6666667,0.933333333 Z M18.2,3.73333333 L18.2,4.66666667 L9.8,4.66666667 L9.8,3.73333333 L18.2,3.73333333 Z M12.6,1.86666667 L12.6,2.8 L9.8,2.8 L9.8,1.86666667 L12.6,1.86666667 Z M18.2,1.86666667 L18.2,2.8 L13.5333333,2.8 L13.5333333,1.86666667 L18.2,1.86666667 Z" id="Combined-Shape"></path>
                </g>
            </g>
        </g>
    </g>
</svg>