<?xml version="1.0" encoding="UTF-8"?>
<svg width="48px" height="48px" viewBox="0 0 48 48" version="1.1" xmlns="http://www.w3.org/2000/svg" xmlns:xlink="http://www.w3.org/1999/xlink">
    <title>519B800C-0428-4668-810E-0DCE1CB7D3A9</title>
    <g id="AdminSide-Projects" stroke="none" stroke-width="1" fill="none" fill-rule="evenodd">
        <g id="AdminSide---Projects" transform="translate(-157.000000, -119.000000)">
            <g id="icon-jobsInProgess" transform="translate(157.000000, 119.000000)">
                <circle id="Oval" fill="#E6F6F5" cx="24" cy="24" r="24"></circle>
                <g id="icon-startProject" transform="translate(16.000000, 15.000000)" fill="#07A39D" fill-rule="nonzero">
                    <path d="M15.501306,11.2595595 C15.7596764,11.2595595 15.9691423,11.0500936 15.9691423,10.7917232 L15.9691423,7.67281482 C15.9691423,7.07089669 15.4794425,6.58119688 14.8775244,6.58119688 L13.1309357,6.58119688 L13.1309357,3.30634308 C13.1309357,3.04797271 12.9214698,2.83850682 12.6630994,2.83850682 L8.4525731,2.83850682 C7.47304873,2.83850682 6.63278363,3.44391813 6.28490059,4.2999961 L2.3962768,0.41140351 C1.84784795,-0.137087719 0.959957116,-0.137181286 0.41140351,0.41140351 C-0.137087719,0.959863549 -0.137181286,1.84766082 0.41140351,2.39624561 L0.967192983,2.9520039 L0.967192983,8.22317739 C-0.314959064,8.93681482 -0.334795321,10.8350448 1.00945419,11.5427251 C2.23552827,12.1882144 3.71654191,11.3305458 3.77626901,9.95307992 C3.7874347,9.69495907 3.58726316,9.47660429 3.32911111,9.46540741 C3.07233138,9.45411696 2.85266667,9.65435088 2.8414386,9.91253411 C2.81134113,10.6072398 2.06483041,11.0409552 1.44529045,10.7147797 C0.702491229,10.323731 0.801048734,9.23279922 1.58417544,8.96928265 C1.77455361,8.90522027 1.90283431,8.72675634 1.90283431,8.52586745 L1.90283431,3.88767641 L6.11336062,8.09820273 L6.11336062,10.7917232 C6.11336062,11.0500936 6.32282651,11.2595595 6.58119688,11.2595595 L7.53246394,11.2595595 L7.53246394,12.195232 L4.70985185,12.195232 C3.6779922,12.195232 2.83850682,13.0347173 2.83850682,14.066577 C2.83850682,15.0984366 3.6779922,15.937922 4.70985185,15.937922 L14.0977661,15.937922 C15.1296257,15.937922 15.9691423,15.0984366 15.9691423,14.066577 C15.9691423,13.0347173 15.1296257,12.195232 14.0977661,12.195232 L11.275154,12.195232 L11.275154,11.2595595 L15.501306,11.2595595 Z M8.4525731,3.77417934 L12.1952632,3.77417934 L12.1952632,8.45254191 L7.04906433,8.45254191 C7.04906433,8.04122027 7.04906433,5.52713061 7.04906433,5.17768811 C7.04906433,4.40379337 7.67867836,3.77417934 8.4525731,3.77417934 Z M1.07304873,1.73460039 C0.890187135,1.55173879 0.890187135,1.25587914 1.07304873,1.07301754 C1.25587914,0.890187135 1.55180117,0.890155946 1.73466277,1.07301754 L6.11339181,5.45174659 L6.11339181,6.77497466 L1.07304873,1.73460039 Z M7.04906433,9.38821443 L12.6630994,9.38821443 C12.9214698,9.38821443 13.1309357,9.17874854 13.1309357,8.92037817 L13.1309357,7.5168694 L14.8775244,7.5168694 C14.9635127,7.5168694 15.0334698,7.58682651 15.0334698,7.67281482 L15.0334698,10.3238869 L7.04906433,10.3238869 L7.04906433,9.38821443 Z M12.4782105,13.1309045 C12.149883,13.6969552 12.1352242,14.4109045 12.4782105,15.0022495 L6.32946979,15.0022495 C6.65779727,14.4361676 6.67245614,13.7222495 6.32946979,13.1309045 L12.4782105,13.1309045 Z M3.77421053,14.066577 C3.77421053,13.5506472 4.19395322,13.1309045 4.70988304,13.1309045 C5.22581287,13.1309045 5.64555556,13.5506472 5.64555556,14.066577 C5.64555556,14.5825068 5.22581287,15.0022495 4.70988304,15.0022495 C4.19395322,15.0022495 3.77421053,14.5825068 3.77421053,14.066577 Z M15.0334698,14.066577 C15.0334698,14.5825068 14.6137271,15.0022495 14.0977973,15.0022495 C13.5818674,15.0022495 13.1621248,14.5825068 13.1621248,14.066577 C13.1621248,13.5506472 13.5818674,13.1309045 14.0977973,13.1309045 C14.6137271,13.1309045 15.0334698,13.5506472 15.0334698,14.066577 Z M10.3395127,12.195232 L8.46816764,12.195232 L8.46816764,11.2595595 L10.3395127,11.2595595 L10.3395127,12.195232 Z" transform="translate(7.984571, 7.968961) scale(-1, 1) translate(-7.984571, -7.968961) "></path>
                </g>
            </g>
        </g>
    </g>
</svg>