<?xml version="1.0" encoding="UTF-8"?>
<svg width="48px" height="48px" viewBox="0 0 48 48" version="1.1" xmlns="http://www.w3.org/2000/svg" xmlns:xlink="http://www.w3.org/1999/xlink">
    <title>1E8135F0-2082-46E9-ADFF-226F8790E5FE</title>
    <g id="AdminSide-Projects" stroke="none" stroke-width="1" fill="none" fill-rule="evenodd">
        <g id="AdminSide---Projects" transform="translate(-1046.000000, -119.000000)">
            <g id="icon-scheduledVisits" transform="translate(1046.000000, 119.000000)">
                <circle id="Oval" fill="#E6F6F5" cx="24" cy="24" r="24"></circle>
                <g id="icon-visit" transform="translate(15.000000, 16.000000)" fill="#07A39D" fill-rule="nonzero">
                    <path d="M14.9861973,0 L14.9861973,1.00074219 L16.9841621,1.00751563 L16.9841621,14.312207 L5.89866797,14.312207 C5.18642773,15.4924121 4.58335937,16.3814258 4.57592187,16.392416 L4.57592187,16.392416 L4.1628418,17 L3.74976172,16.392416 C3.74049805,16.3787695 2.81253711,15.0108008 1.8976582,13.412502 C0.620732422,11.1815508 -1.25677246e-13,9.63996289 -1.25677246e-13,8.6997168 C-1.25677246e-13,6.40428516 1.86747656,4.53680859 4.1629082,4.53680859 C4.67851953,4.53680859 5.17234961,4.63127148 5.62846094,4.80339648 L5.62846094,4.80339648 L5.62846094,1.00582227 L7.65982812,1.00582227 L7.65982812,0 L14.9861973,0 Z M4.162875,5.53579102 C2.4182832,5.53579102 0.998982422,6.9550918 0.998982422,8.69968359 C0.998982422,10.0510176 3.00601172,13.4246875 4.162875,15.2074629 C5.31980469,13.4246875 7.32680078,10.0510176 7.32680078,8.69968359 C7.32680078,6.9550918 5.9075,5.53579102 4.162875,5.53579102 Z M13.987248,0.999015625 L8.65881055,0.999015625 L8.65881055,2.00483789 L6.62744336,2.00483789 L6.62744336,5.34693164 C7.65670703,6.10555664 8.32581641,7.32587109 8.32581641,8.69968359 C8.32581641,9.62588477 7.72304687,11.1359961 6.48457031,13.3131914 L6.48457031,13.3131914 L10.8570234,13.3131914 L10.8570234,11.2484219 L11.8560059,11.2484219 L11.8560059,13.3131914 L15.9852129,13.3131914 L15.9852129,2.00314453 L13.987248,1.99633789 L13.987248,0.999015625 Z M4.162875,6.70158594 C5.2646543,6.70158594 6.16097266,7.5979043 6.16097266,8.69968359 C6.16097266,9.80146289 5.26462109,10.6977813 4.162875,10.6977813 C3.06112891,10.6977813 2.16477734,9.80146289 2.16477734,8.69968359 C2.16477734,7.5979043 3.06112891,6.70158594 4.162875,6.70158594 Z M10.8568242,9.20988281 L10.8568242,10.2089648 L8.85899219,10.2089648 L8.85899219,9.20988281 L10.8568242,9.20988281 Z M13.8537383,9.20988281 L13.8537383,10.2089648 L11.8559062,10.2089648 L11.8559062,9.20988281 L13.8537383,9.20988281 Z M4.162875,7.70053516 C3.61193555,7.70053516 3.16375977,8.14874414 3.16375977,8.69965039 C3.16375977,9.25058984 3.61196875,9.69876563 4.162875,9.69876563 C4.71381445,9.69876563 5.16199023,9.25058984 5.16199023,8.69965039 C5.16199023,8.14871094 4.71378125,7.70053516 4.162875,7.70053516 Z M10.8568242,7.21171875 L10.8568242,8.21080078 L8.85899219,8.21080078 L8.85899219,7.21171875 L10.8568242,7.21171875 Z M13.8537383,7.21171875 L13.8537383,8.21080078 L11.8559062,8.21080078 L11.8559062,7.21171875 L13.8537383,7.21171875 Z M10.8568242,5.259375 L10.8568242,6.25845703 L8.85899219,6.25845703 L8.85899219,5.259375 L10.8568242,5.259375 Z M13.8537383,5.259375 L13.8537383,6.25845703 L11.8559062,6.25845703 L11.8559062,5.259375 L13.8537383,5.259375 Z M10.8568242,3.26154297 L10.8568242,4.260625 L8.85899219,4.260625 L8.85899219,3.26154297 L10.8568242,3.26154297 Z M13.8537383,3.26154297 L13.8537383,4.260625 L11.8559062,4.260625 L11.8559062,3.26154297 L13.8537383,3.26154297 Z"></path>
                </g>
            </g>
        </g>
    </g>
</svg>